HIERARCHY
ROOT root
{
	OFFSET	0	13.1	24.9
	CHANNELS 6  Xposition Yposition Zposition Xrotation Yrotation Zrotation
	JOINT spine_1
	{
		OFFSET	0	9.99999	0
		CHANNELS 3  Xrotation Yrotation Zrotation
		JOINT spine_2
		{
			OFFSET	0	112	-10
			CHANNELS 3  Xrotation Yrotation Zrotation
			JOINT spine_3
			{
				OFFSET	0	206.5	19.3
				CHANNELS 3  Xrotation Yrotation Zrotation
				JOINT spine_4
				{
					OFFSET	0	110.4	14.6
					CHANNELS 3  Xrotation Yrotation Zrotation
					JOINT neck_1
					{
						OFFSET	0	71.8	-50.3
						CHANNELS 3  Xrotation Yrotation Zrotation
						JOINT neck_2
						{
							OFFSET	0	86.2	-25.8
							CHANNELS 3  Xrotation Yrotation Zrotation
							JOINT head_ee
							{
								OFFSET	0	179.8	-8.7
								CHANNELS 3  Xrotation Yrotation Zrotation
								End Site
								{
									OFFSET	1	0	0
								}
							}
						}
					}
					JOINT left_clavicle
					{
						OFFSET	-43.2	22.4	-70.8
						CHANNELS 3  Xrotation Yrotation Zrotation
						JOINT left_shoulder
						{
							OFFSET	-93.9	-5.79999	48.7
							CHANNELS 3  Xrotation Yrotation Zrotation
							JOINT left_elbow
							{
								OFFSET	-291.4	-30.8	15.2
								CHANNELS 3  Xrotation Yrotation Zrotation
								JOINT left_lowarm_twist
								{
									OFFSET	-110.7	-3.89999	13.6
									CHANNELS 3  Xrotation Yrotation Zrotation
									JOINT left_hand
									{
										OFFSET	-110.7	-3.89999	13.6
										CHANNELS 3  Xrotation Yrotation Zrotation
										JOINT left_ee
										{
											OFFSET	-80.8	-5.10001	12.1
											CHANNELS 3  Xrotation Yrotation Zrotation
											End Site
											{
												OFFSET	1	0	0
											}
										}
									}
								}
							}
						}
					}
					JOINT right_clavicle
					{
						OFFSET	43.2	22.4	-70.8
						CHANNELS 3  Xrotation Yrotation Zrotation
						JOINT right_shoulder
						{
							OFFSET	93.9	-5.79999	48.7
							CHANNELS 3  Xrotation Yrotation Zrotation
							JOINT right_elbow
							{
								OFFSET	291.4	-30.8	15.2
								CHANNELS 3  Xrotation Yrotation Zrotation
								JOINT right_lowarm_twist
								{
									OFFSET	110.7	-3.89999	13.6
									CHANNELS 3  Xrotation Yrotation Zrotation
									JOINT right_hand
									{
										OFFSET	110.7	-3.89999	13.6
										CHANNELS 3  Xrotation Yrotation Zrotation
										JOINT right_ee
										{
											OFFSET	80.8	-5.10001	12.1
											CHANNELS 3  Xrotation Yrotation Zrotation
											End Site
											{
												OFFSET	1	0	0
											}
										}
									}
								}
							}
						}
					}
				}
			}
		}
	}
	JOINT left_hip
	{
		OFFSET	-82.8	-127.5	0.300001
		CHANNELS 3  Xrotation Yrotation Zrotation
		JOINT left_knee
		{
			OFFSET	-28.2	-396.7	2.2
			CHANNELS 3  Xrotation Yrotation Zrotation
			JOINT left_ankle
			{
				OFFSET	-11.7	-411.3	35.4
				CHANNELS 3  Xrotation Yrotation Zrotation
				JOINT left_toes
				{
					OFFSET	0	-60	-88.6
					CHANNELS 3  Xrotation Yrotation Zrotation
					JOINT left_foot_ee
					{
						OFFSET	-22.5	-16.5	-42.2
						CHANNELS 3  Xrotation Yrotation Zrotation
						End Site
						{
							OFFSET	1	0	0
						}
					}
				}
			}
		}
	}
	JOINT right_hip
	{
		OFFSET	82.8	-127.5	0.300001
		CHANNELS 3  Xrotation Yrotation Zrotation
		JOINT right_knee
		{
			OFFSET	28.2	-396.7	2.2
			CHANNELS 3  Xrotation Yrotation Zrotation
			JOINT right_ankle
			{
				OFFSET	11.7	-411.3	35.4
				CHANNELS 3  Xrotation Yrotation Zrotation
				JOINT right_toes
				{
					OFFSET	0	-60	-88.6
					CHANNELS 3  Xrotation Yrotation Zrotation
					JOINT right_foot_ee
					{
						OFFSET	22.5	-16.5	-42.2
						CHANNELS 3  Xrotation Yrotation Zrotation
						End Site
						{
							OFFSET	1	0	0
						}
					}
				}
			}
		}
	}
}
MOTION
Frames: 5
Frame Time: 0.02
614.724 625.828 -1625.68 -38.3301 63.8661 40.1652 8.4341 -0.178852 -1.30206 8.43504 -0.0956432 -1.3108 8.43552 -0.0109305 -1.31423 8.43317 -0.218334 -1.29602 -17.0855 -9.13257 8.74709 -17.4537 -22.4014 4.75884 -0.0 0.0 -0.0 2.22188 16.9405 5.43582 -24.6995 -14.3052 69.373 1.09715 -28.523 0.278883 83.5206 -4.25027 -8.79564 8.33712 -1.92516 74.7601 -0.0 0.0 -0.0 -0.464174 -21.4447 -1.83061 -27.5325 44.267 -53.1795 3.16826 57.4838 -1.7379 0.0679663 -0.00238979 0.00835116 -1.29231 -22.8117 -1.62673 0.0 0.0 0.0 40.9448 5.59272 1.22549 -3.18502 0.117972 0.474501 6.71096 -8.83651 -1.00785 -1.72544 0.0 0.0 -0.0 0.0 -0.0 11.3689 6.39961 -9.7561 -28.3966 -0.102131 -4.31223 12.1728 -24.2617 1.79065 33.5705 -0.0 -0.0 0.0 0.0 0.0 
604.212 627.624 -1628.66 -39.9619 64.2858 41.8096 7.99793 -0.5118 -1.25651 7.99871 -0.430815 -1.28652 8.00693 -0.337236 -1.31415 8.00493 -0.540534 -1.24442 -15.3236 -9.95652 9.66628 -15.6383 -24.7111 5.6881 -0.0 0.0 -0.0 2.22081 17.6608 5.47348 -22.9902 -15.1699 69.521 1.09413 -28.4568 0.277442 83.2418 -4.21726 -8.78185 8.24497 -0.917846 74.0078 -0.0 0.0 -0.0 -0.60322 -22.3691 -1.75033 -29.9116 43.8547 -52.4133 3.11895 57.0755 -1.69641 -0.988823 0.0358882 -0.121176 -1.60441 -22.8386 0.160469 0.0 0.0 0.0 40.7312 5.59214 1.12158 -6.34833 0.20884 0.951402 5.13166 -8.74648 -0.774338 -2.92296 0.0 0.0 -0.0 0.0 -0.0 13.2692 5.90728 -8.15674 -33.9131 0.125596 -5.12782 12.1571 -23.7063 1.78339 34.0691 -0.0 -0.0 0.0 0.0 0.0 
578.992 629.934 -1634.51 -39.6184 66.1616 41.8786 7.8332 -0.688144 -1.17556 7.83376 -0.611951 -1.21696 7.84564 -0.519401 -1.25924 7.84413 -0.711742 -1.16142 -12.9939 -10.2802 9.58146 -13.1583 -25.528 6.04829 -0.0 0.0 -0.0 2.42512 16.9331 5.7519 -21.4923 -16.4297 70.2591 1.09216 -28.4137 0.276506 83.0724 -4.19724 -8.77339 8.03622 0.958288 71.6823 -0.0 0.0 -0.0 -1.057 -23.0055 -1.20452 -32.9323 43.0083 -50.9539 3.08724 56.8081 -1.66983 -1.14138 0.0416113 -0.139816 -1.60427 -22.946 0.110034 0.0 0.0 0.0 38.4884 6.15988 1.30862 -9.86229 0.27874 1.48602 6.64139 -8.35144 -0.99511 -3.44986 0.0 0.0 -0.0 0.0 -0.0 14.9116 5.55658 -6.44118 -42.068 0.603544 -6.28532 11.4916 -22.8229 1.68232 35.1172 -0.0 -0.0 0.0 0.0 0.0 
560.304 623.571 -1634.8 -37.6853 66.8264 39.7996 7.77113 -0.814157 -1.15266 7.77156 -0.739165 -1.20213 7.78612 -0.646094 -1.2546 7.7849 -0.836114 -1.13684 -10.438 -9.30637 8.44343 -10.408 -23.1661 5.82867 -0.0 0.0 -0.0 2.57306 16.3943 5.9574 -20.106 -17.3627 70.769 1.16612 -30.0123 0.312606 83.4654 -4.24373 -8.79292 7.83365 3.25946 69.9422 -0.0 0.0 -0.0 -1.15441 -23.407 -1.12742 -36.9283 42.0032 -49.5418 2.8506 54.6848 -1.4742 -2.27688 0.0857682 -0.278075 -1.74226 -23.2073 0.781503 0.0 0.0 0.0 36.9807 6.68668 1.78908 -12.5037 0.30963 1.8901 11.218 -7.94824 -1.64957 -4.03302 0.0 0.0 -0.0 0.0 -0.0 15.9579 5.16397 -5.81947 -48.6295 1.10492 -7.16105 9.55508 -21.9384 1.40196 36.1149 -0.0 -0.0 0.0 0.0 0.0 
537.381 618.746 -1631.83 -37.7585 67.4965 39.1622 7.7513 -0.836524 -1.08439 7.75163 -0.765831 -1.13541 7.76604 -0.677312 -1.19034 7.76508 -0.856793 -1.06845 -8.65417 -8.63474 7.62288 -8.53352 -21.451 5.56977 -0.0 0.0 -0.0 2.79104 15.838 6.27716 -18.7364 -18.2381 71.5566 1.22919 -31.3362 0.344783 83.7404 -4.27634 -8.8064 7.69653 4.90406 68.7651 -0.0 0.0 -0.0 -1.2238 -23.4612 -1.04023 -39.5962 41.1972 -48.4562 2.70129 53.2196 -1.35347 -3.06862 0.118177 -0.373956 -1.8424 -23.432 1.24942 0.0 0.0 0.0 35.9037 6.96411 2.13245 -14.5608 0.320767 2.20551 14.6188 -7.70963 -2.11715 -4.38966 0.0 0.0 -0.0 0.0 -0.0 18.0297 4.78698 -5.77808 -52.529 1.44949 -7.65281 8.12445 -21.3716 1.19442 36.7883 -0.0 -0.0 0.0 0.0 0.0 
